<?xml version="1.0" encoding="utf-8" ?>
<svg baseProfile="tiny" height="339" version="1.2" width="649" xmlns="http://www.w3.org/2000/svg" xmlns:ev="http://www.w3.org/2001/xml-events" xmlns:xlink="http://www.w3.org/1999/xlink"><defs /><path d="M 103,2 L 102,3 L 96,3 L 95,4 L 90,4 L 89,5 L 86,5 L 85,6 L 82,6 L 81,7 L 78,7 L 77,8 L 75,8 L 74,9 L 72,9 L 71,10 L 70,10 L 69,11 L 67,11 L 66,12 L 65,12 L 64,13 L 63,13 L 62,14 L 61,14 L 60,15 L 59,15 L 58,16 L 57,16 L 55,18 L 54,18 L 52,20 L 51,20 L 49,22 L 48,22 L 46,24 L 45,24 L 42,27 L 41,27 L 29,39 L 29,40 L 26,43 L 26,44 L 24,46 L 24,47 L 22,49 L 22,50 L 20,52 L 20,53 L 19,54 L 19,55 L 18,56 L 18,57 L 17,58 L 17,59 L 16,60 L 16,61 L 15,62 L 15,64 L 14,65 L 14,67 L 13,68 L 13,70 L 12,71 L 12,73 L 11,74 L 11,78 L 10,79 L 10,84 L 9,85 L 9,114 L 10,115 L 10,122 L 11,123 L 11,127 L 12,128 L 12,131 L 13,132 L 13,134 L 14,135 L 14,137 L 15,138 L 15,140 L 16,141 L 16,142 L 17,143 L 17,144 L 18,145 L 18,146 L 19,147 L 19,148 L 21,150 L 21,151 L 23,153 L 23,154 L 25,156 L 25,157 L 28,160 L 28,161 L 34,167 L 35,167 L 39,171 L 40,171 L 42,173 L 43,173 L 45,175 L 46,175 L 48,177 L 49,177 L 51,179 L 52,179 L 53,180 L 54,180 L 55,181 L 56,181 L 57,182 L 58,182 L 59,183 L 60,183 L 61,184 L 62,184 L 63,185 L 65,185 L 66,186 L 67,186 L 68,187 L 70,187 L 71,188 L 72,188 L 73,189 L 75,189 L 76,190 L 77,190 L 78,191 L 80,191 L 81,192 L 83,192 L 84,193 L 85,193 L 86,194 L 88,194 L 89,195 L 91,195 L 92,196 L 94,196 L 95,197 L 97,197 L 98,198 L 99,198 L 100,199 L 102,199 L 103,200 L 105,200 L 106,201 L 108,201 L 109,202 L 111,202 L 112,203 L 114,203 L 115,204 L 116,204 L 117,205 L 119,205 L 120,206 L 121,206 L 122,207 L 124,207 L 125,208 L 126,208 L 127,209 L 128,209 L 129,210 L 130,210 L 131,211 L 132,211 L 133,212 L 134,212 L 135,213 L 136,213 L 138,215 L 139,215 L 148,224 L 148,225 L 149,226 L 149,227 L 150,228 L 150,229 L 151,230 L 151,231 L 152,232 L 152,235 L 153,236 L 153,252 L 152,253 L 152,255 L 151,256 L 151,258 L 150,259 L 150,260 L 149,261 L 149,262 L 140,271 L 139,271 L 138,272 L 137,272 L 136,273 L 135,273 L 134,274 L 133,274 L 132,275 L 130,275 L 129,276 L 126,276 L 125,277 L 116,277 L 115,278 L 112,278 L 111,277 L 104,277 L 103,276 L 100,276 L 99,275 L 96,275 L 95,274 L 94,274 L 93,273 L 91,273 L 90,272 L 89,272 L 88,271 L 87,271 L 85,269 L 84,269 L 71,256 L 71,255 L 70,254 L 70,253 L 69,252 L 69,251 L 68,250 L 68,249 L 67,248 L 67,247 L 66,246 L 5,246 L 4,247 L 4,251 L 5,252 L 5,259 L 6,260 L 6,265 L 7,266 L 7,270 L 8,271 L 8,274 L 9,275 L 9,277 L 10,278 L 10,280 L 11,281 L 11,282 L 12,283 L 12,285 L 13,286 L 13,287 L 14,288 L 14,289 L 15,290 L 15,291 L 17,293 L 17,294 L 18,295 L 18,296 L 20,298 L 20,299 L 23,302 L 23,303 L 27,307 L 27,308 L 32,313 L 33,313 L 37,317 L 38,317 L 41,320 L 42,320 L 44,322 L 45,322 L 47,324 L 48,324 L 49,325 L 50,325 L 52,327 L 53,327 L 54,328 L 55,328 L 56,329 L 57,329 L 58,330 L 59,330 L 60,331 L 62,331 L 63,332 L 64,332 L 65,333 L 67,333 L 68,334 L 71,334 L 72,335 L 74,335 L 75,336 L 76,336 L 78,338 L 79,337 L 80,338 L 143,338 L 144,337 L 145,338 L 147,336 L 148,336 L 149,335 L 151,335 L 152,334 L 154,334 L 155,333 L 157,333 L 158,332 L 159,332 L 160,331 L 161,331 L 162,330 L 164,330 L 165,329 L 166,329 L 168,327 L 169,327 L 170,326 L 171,326 L 173,324 L 174,324 L 176,322 L 177,322 L 179,320 L 180,320 L 182,318 L 183,318 L 188,313 L 189,313 L 193,309 L 193,308 L 198,303 L 198,302 L 200,300 L 200,299 L 202,297 L 202,296 L 204,294 L 204,293 L 205,292 L 205,291 L 207,289 L 207,288 L 208,287 L 208,286 L 209,285 L 209,283 L 210,282 L 210,281 L 211,280 L 211,278 L 212,277 L 212,275 L 213,274 L 213,272 L 214,271 L 214,268 L 215,267 L 215,263 L 216,262 L 216,257 L 217,256 L 217,248 L 218,247 L 218,229 L 217,228 L 217,219 L 216,218 L 216,214 L 215,213 L 215,209 L 214,208 L 214,205 L 213,204 L 213,202 L 212,201 L 212,199 L 211,198 L 211,196 L 210,195 L 210,193 L 209,192 L 209,191 L 208,190 L 208,189 L 207,188 L 207,187 L 206,186 L 206,185 L 204,183 L 204,182 L 202,180 L 202,179 L 200,177 L 200,176 L 198,174 L 198,173 L 186,161 L 185,161 L 182,158 L 181,158 L 179,156 L 178,156 L 176,154 L 175,154 L 174,153 L 173,153 L 171,151 L 170,151 L 169,150 L 168,150 L 167,149 L 166,149 L 165,148 L 164,148 L 163,147 L 162,147 L 161,146 L 159,146 L 158,145 L 157,145 L 156,144 L 155,144 L 154,143 L 152,143 L 151,142 L 149,142 L 148,141 L 146,141 L 145,140 L 144,140 L 143,139 L 141,139 L 140,138 L 137,138 L 136,137 L 134,137 L 133,136 L 131,136 L 130,135 L 127,135 L 126,134 L 124,134 L 123,133 L 120,133 L 119,132 L 116,132 L 115,131 L 113,131 L 112,130 L 109,130 L 108,129 L 106,129 L 105,128 L 104,128 L 103,127 L 101,127 L 100,126 L 99,126 L 98,125 L 97,125 L 96,124 L 95,124 L 94,123 L 93,123 L 92,122 L 91,122 L 81,112 L 81,111 L 80,110 L 80,109 L 79,108 L 79,107 L 78,106 L 78,104 L 77,103 L 77,92 L 78,91 L 78,89 L 79,88 L 79,87 L 80,86 L 80,85 L 81,84 L 81,83 L 90,74 L 91,74 L 93,72 L 94,72 L 95,71 L 97,71 L 98,70 L 99,70 L 100,69 L 103,69 L 104,68 L 110,68 L 111,67 L 321,67 L 322,68 L 326,68 L 327,69 L 329,69 L 330,70 L 331,70 L 332,71 L 333,71 L 334,72 L 335,72 L 336,73 L 337,73 L 347,83 L 347,84 L 348,85 L 348,86 L 349,87 L 349,88 L 350,89 L 350,90 L 351,91 L 351,93 L 352,94 L 352,96 L 353,97 L 353,102 L 354,103 L 354,115 L 353,116 L 353,121 L 352,122 L 352,125 L 351,126 L 351,128 L 350,129 L 350,131 L 349,132 L 349,133 L 348,134 L 348,135 L 347,136 L 347,137 L 346,138 L 346,139 L 336,149 L 335,149 L 334,150 L 333,150 L 332,151 L 331,151 L 330,152 L 329,152 L 328,153 L 326,153 L 325,154 L 322,154 L 321,155 L 315,155 L 314,156 L 276,156 L 274,154 L 274,102 L 273,101 L 213,101 L 212,102 L 212,156 L 213,157 L 213,158 L 216,161 L 216,162 L 218,164 L 218,165 L 219,166 L 219,167 L 221,169 L 221,170 L 222,171 L 222,172 L 223,173 L 223,174 L 224,175 L 224,176 L 225,177 L 225,178 L 226,179 L 226,181 L 227,182 L 227,183 L 228,184 L 228,185 L 229,186 L 229,188 L 230,189 L 230,191 L 231,192 L 231,194 L 232,195 L 232,198 L 233,199 L 233,202 L 234,203 L 234,207 L 235,208 L 235,213 L 236,214 L 236,222 L 237,223 L 237,250 L 236,251 L 236,258 L 235,259 L 235,264 L 234,265 L 234,269 L 233,270 L 233,273 L 232,274 L 232,277 L 231,278 L 231,280 L 230,281 L 230,283 L 229,284 L 229,286 L 228,287 L 228,289 L 227,290 L 227,291 L 226,292 L 226,294 L 225,295 L 225,296 L 224,297 L 224,298 L 223,299 L 223,300 L 222,301 L 222,302 L 221,303 L 221,304 L 220,305 L 220,306 L 218,308 L 218,309 L 217,310 L 217,311 L 215,313 L 215,314 L 214,315 L 214,316 L 212,318 L 212,335 L 213,336 L 273,336 L 274,335 L 274,211 L 276,209 L 294,209 L 296,211 L 296,212 L 297,213 L 297,214 L 298,215 L 298,216 L 299,217 L 299,218 L 300,219 L 300,220 L 301,221 L 301,222 L 302,223 L 302,224 L 303,225 L 303,226 L 304,227 L 304,228 L 305,229 L 305,230 L 306,231 L 306,232 L 307,233 L 307,234 L 308,235 L 308,236 L 309,237 L 309,238 L 310,239 L 310,240 L 311,241 L 311,242 L 312,243 L 312,244 L 313,245 L 313,247 L 315,249 L 315,250 L 316,251 L 316,253 L 317,254 L 317,255 L 318,256 L 318,257 L 319,258 L 319,259 L 320,260 L 320,261 L 321,262 L 321,263 L 322,264 L 322,265 L 323,266 L 323,267 L 324,268 L 324,269 L 325,270 L 325,271 L 326,272 L 326,273 L 327,274 L 327,276 L 328,277 L 328,278 L 329,279 L 329,280 L 330,281 L 330,282 L 331,283 L 331,284 L 332,285 L 332,286 L 333,287 L 333,288 L 334,289 L 334,290 L 335,291 L 335,293 L 336,294 L 336,295 L 337,296 L 337,297 L 338,298 L 338,299 L 339,300 L 339,301 L 340,302 L 340,303 L 341,304 L 341,305 L 342,306 L 342,308 L 343,309 L 343,310 L 344,311 L 344,312 L 345,313 L 345,314 L 346,315 L 346,316 L 347,317 L 347,318 L 348,319 L 348,320 L 349,321 L 349,322 L 350,323 L 350,324 L 351,325 L 351,326 L 352,327 L 352,328 L 353,329 L 353,331 L 354,332 L 354,333 L 355,334 L 355,335 L 356,336 L 428,336 L 429,335 L 428,334 L 428,333 L 427,332 L 427,331 L 426,330 L 426,329 L 425,328 L 425,327 L 424,326 L 424,325 L 423,324 L 423,323 L 422,322 L 422,321 L 420,319 L 420,318 L 419,317 L 419,316 L 418,315 L 418,314 L 417,313 L 417,312 L 416,311 L 416,310 L 415,309 L 415,308 L 414,307 L 414,306 L 413,305 L 413,304 L 412,303 L 412,302 L 410,300 L 410,299 L 409,298 L 409,297 L 408,296 L 408,295 L 407,294 L 407,293 L 406,292 L 406,291 L 405,290 L 405,289 L 404,288 L 404,287 L 402,285 L 402,284 L 401,283 L 401,282 L 400,281 L 400,280 L 399,279 L 399,278 L 398,277 L 398,276 L 397,275 L 397,274 L 396,273 L 396,272 L 395,271 L 395,270 L 393,268 L 393,267 L 392,266 L 392,265 L 391,264 L 391,263 L 390,262 L 390,261 L 389,260 L 389,259 L 388,258 L 388,257 L 387,256 L 387,255 L 386,254 L 386,253 L 385,252 L 385,251 L 384,250 L 384,249 L 383,248 L 383,247 L 382,246 L 382,245 L 381,244 L 381,243 L 380,242 L 380,241 L 379,240 L 379,239 L 378,238 L 378,237 L 376,235 L 376,234 L 375,233 L 375,232 L 374,231 L 374,230 L 373,229 L 373,228 L 372,227 L 372,226 L 371,225 L 371,224 L 370,223 L 370,222 L 369,221 L 369,220 L 368,219 L 368,218 L 367,217 L 367,216 L 366,215 L 366,214 L 365,213 L 365,212 L 364,211 L 364,210 L 363,209 L 363,208 L 362,207 L 362,206 L 361,205 L 362,204 L 362,203 L 363,202 L 365,202 L 366,201 L 368,201 L 369,200 L 370,200 L 371,199 L 372,199 L 373,198 L 374,198 L 375,197 L 376,197 L 377,196 L 378,196 L 380,194 L 381,194 L 383,192 L 384,192 L 386,190 L 387,190 L 390,187 L 391,187 L 398,180 L 398,179 L 401,176 L 401,175 L 404,172 L 404,171 L 406,169 L 406,168 L 407,167 L 407,166 L 409,164 L 409,163 L 410,162 L 410,161 L 411,160 L 411,159 L 412,158 L 412,156 L 413,155 L 413,153 L 414,152 L 414,150 L 415,149 L 415,147 L 416,146 L 416,143 L 417,142 L 417,139 L 418,138 L 418,133 L 419,132 L 419,124 L 420,123 L 420,98 L 419,97 L 419,90 L 418,89 L 418,84 L 417,83 L 417,80 L 416,79 L 416,76 L 415,75 L 415,73 L 414,72 L 414,69 L 413,68 L 413,66 L 412,65 L 412,64 L 411,63 L 411,61 L 410,60 L 410,59 L 409,58 L 409,57 L 408,56 L 408,55 L 407,54 L 407,53 L 405,51 L 405,50 L 403,48 L 403,47 L 401,45 L 401,44 L 399,42 L 399,41 L 396,38 L 396,37 L 386,27 L 385,27 L 381,23 L 380,23 L 378,21 L 377,21 L 375,19 L 374,19 L 372,17 L 371,17 L 370,16 L 369,16 L 367,14 L 366,14 L 365,13 L 364,13 L 363,12 L 361,12 L 360,11 L 359,11 L 358,10 L 357,10 L 356,9 L 354,9 L 353,8 L 351,8 L 350,7 L 348,7 L 347,6 L 344,6 L 343,5 L 340,5 L 339,4 L 335,4 L 334,3 L 327,3 L 326,2 Z" fill="white" /><path d="M 399,0 L 398,1 L 397,1 L 414,18 L 414,19 L 418,23 L 418,24 L 422,28 L 422,29 L 424,31 L 424,32 L 426,34 L 426,35 L 427,36 L 427,37 L 429,39 L 429,40 L 430,41 L 430,42 L 431,43 L 431,44 L 432,45 L 432,46 L 433,47 L 433,49 L 434,50 L 434,51 L 435,52 L 435,53 L 436,54 L 436,56 L 437,57 L 437,58 L 438,59 L 438,61 L 439,62 L 439,64 L 440,65 L 440,66 L 441,67 L 539,67 L 540,68 L 544,68 L 545,69 L 547,69 L 548,70 L 550,70 L 551,71 L 552,71 L 553,72 L 554,72 L 555,73 L 556,73 L 568,85 L 568,86 L 569,87 L 569,88 L 570,89 L 570,90 L 571,91 L 571,92 L 572,93 L 572,94 L 573,95 L 573,98 L 574,99 L 574,102 L 575,103 L 575,121 L 574,122 L 574,126 L 573,127 L 573,129 L 572,130 L 572,131 L 571,132 L 571,133 L 570,134 L 570,135 L 569,136 L 569,137 L 568,138 L 568,139 L 558,149 L 557,149 L 556,150 L 555,150 L 554,151 L 553,151 L 552,152 L 550,152 L 549,153 L 547,153 L 546,154 L 543,154 L 542,155 L 534,155 L 533,156 L 442,156 L 441,157 L 441,294 L 440,295 L 440,335 L 441,336 L 504,336 L 505,335 L 505,280 L 504,279 L 504,244 L 505,243 L 505,237 L 504,236 L 504,219 L 506,217 L 547,217 L 548,216 L 557,216 L 558,215 L 563,215 L 564,214 L 568,214 L 569,213 L 572,213 L 573,212 L 576,212 L 577,211 L 579,211 L 580,210 L 582,210 L 583,209 L 584,209 L 585,208 L 587,208 L 588,207 L 589,207 L 590,206 L 591,206 L 592,205 L 593,205 L 594,204 L 595,204 L 597,202 L 598,202 L 600,200 L 601,200 L 603,198 L 604,198 L 606,196 L 607,196 L 610,193 L 611,193 L 621,183 L 621,182 L 623,180 L 623,179 L 626,176 L 626,175 L 628,173 L 628,172 L 630,170 L 630,169 L 631,168 L 631,167 L 632,166 L 632,165 L 633,164 L 633,163 L 634,162 L 634,161 L 635,160 L 635,158 L 636,157 L 636,155 L 637,154 L 637,152 L 638,151 L 638,149 L 639,148 L 639,145 L 640,144 L 640,140 L 641,139 L 641,135 L 642,134 L 642,128 L 643,127 L 643,116 L 644,115 L 644,105 L 643,104 L 643,91 L 642,90 L 642,85 L 641,84 L 641,80 L 640,79 L 640,76 L 639,75 L 639,72 L 638,71 L 638,69 L 637,68 L 637,66 L 636,65 L 636,64 L 635,63 L 635,62 L 634,61 L 634,59 L 633,58 L 633,57 L 632,56 L 632,55 L 630,53 L 630,52 L 629,51 L 629,50 L 627,48 L 627,47 L 625,45 L 625,44 L 623,42 L 623,41 L 619,37 L 619,36 L 611,28 L 610,28 L 606,24 L 605,24 L 603,22 L 602,22 L 600,20 L 599,20 L 597,18 L 596,18 L 594,16 L 593,16 L 592,15 L 591,15 L 590,14 L 589,14 L 588,13 L 587,13 L 586,12 L 585,12 L 584,11 L 582,11 L 581,10 L 580,10 L 579,9 L 577,9 L 576,8 L 574,8 L 573,7 L 571,7 L 570,6 L 567,6 L 566,5 L 562,5 L 561,4 L 557,4 L 556,3 L 550,3 L 549,2 L 401,2 Z" fill="white" /></svg>